<?xml version="1.0" encoding="UTF-8"?>
<svg id="_图层_1" data-name="图层_1" xmlns="http://www.w3.org/2000/svg" version="1.1" viewBox="0 0 934.47 935.2">
  <!-- Generator: Adobe Illustrator 29.1.0, SVG Export Plug-In . SVG Version: 2.1.0 Build 142)  -->
  <defs>
    <style>
      .st0 {
        fill: #e6eed9;
      }

      .st1 {
        fill: #b6c68a;
      }

      .st2 {
        fill: #b6c78c;
      }

      .st3 {
        fill: #d0e3c5;
      }

      .st4 {
        fill: #d9e4ca;
      }

      .st5 {
        fill: #d8e4ca;
      }

      .st6 {
        fill: #497952;
      }

      .st7 {
        fill: #f7f3d0;
      }

      .st8 {
        fill: #f5f2cf;
      }

      .st9 {
        fill: #f2f6d7;
      }

      .st10 {
        fill: #4c7953;
      }

      .st11 {
        fill: #f7fbec;
      }

      .st12 {
        fill: #4a7953;
      }

      .st13 {
        fill: #8da279;
      }

      .st14 {
        fill: #607d5c;
      }

      .st15 {
        fill: #d7e4ca;
      }
    </style>
  </defs>
  <path class="st0" d="M0,385.47V0h934.47v700.85c-16.83,3.06-33.23,7.72-50.39,8.75-24.38,1.46-48.92-2.85-73.05-1.51-19.6,1.09-38.63,7.97-57.61,7.36l16.67-16.18c7.84-10.91,19.27-28.33,11.4-41.82-10.05-17.22-34.75,5.11-40.53,17.06-7.45,15.39-5.56,26.58-5.06,42.4.04,1.41.14,3,0,4.38-40.52,9.14-85.22-1.68-121.02-21.35-15.97-8.78-28.76-21.29-43.98-31.22,10.2-17.25-2.75-23.15-18.98-20.44-8.9.13-10.99-12.52-11.69-13.15-.92-.84-5.09,1.63-6.46,1.33-2.98-.65-.52-6.73-5.21-5.7l13.11-22.65c-3.28.26-6.72,4.15-8.73,6.58-3.42-1.72-2.9-8.24-7.29-7.29-.51,2.9,2.86,13,1.45,14.59-.18.21-3.97.08-5.5,1-1.76,1.06-1.86,3.39-2.72,3.47-.94.09-6.19-1.32-6.38-1.59-.36-.49,1.44-10.25,1.83-12.01.34-1.57,2.54-2.63,2.61-4.73.03-.88-2.67-.51-2.97-1.7-1.3-5.03.61-15.18-.18-21.53s-4.15-10.57-10.04-11.09c-17.83-1.6-21.35,12.33-31.37,21.98-1.22,1.18-2.97.93-3.67,1.38s-1.16,2.62-2.55,2.9c-3.21.66-30-9.17-34.98-11.37-63.74-28.1-87.53-96.47-130.42-145.95-68.59-79.12-149.84-98.87-251.41-71.48-16.43,4.43-32.24,12.06-49.33,14.18ZM316.46,27.95c-10.9,1.51-3.84,19.51,4.14,10.11,3.66-4.31,1.18-10.84-4.14-10.11ZM208.26,89.16c-4.69,1.38-5,11.85,1,11.35,8.66-.72,5.55-13.27-1-11.35ZM112.41,100.75c-3.2-3.29-5.5,10.65-7.3,12.4-2.25,2.2-8.45,3.23-11.66,3.68,1.06,3.59,9.85,3.18,11.34,4.69.93.94,5.72,19.1,7.59,10.6,2.21-10.05,4.99-13.12,16.09-13.87l-12.33-5.9c-1.98-2.35-3.31-11.17-3.74-11.61ZM654.12,173.74c2.3-3.08-14.39-7.92-11.69-14.58-2.99,1.38-1.59,6.46-4.99,8.87-2.05,1.45-4.31,1.49-6.68,1.35-1.24,6.19,2.01,3.28,5.05,5.85,2.46,2.07,4.56,8.38,5.19,11.65,2.5-1.21,2.9-9.85,4.7-11.33,1.12-.92,7.84-1.05,8.41-1.82ZM399.69,252.22c4.18-4.27-.03-11.99-5.46-9.18-7.06,3.66-.24,15.01,5.46,9.18ZM204.41,284.71h-4.37c1.29,8.12-5,14.47-13.14,13.16-.9,6.05,9.88,4.37,11.41,6.1,1.06,1.2,1.25,10.85,1.73,11.42,2.38,2.84,2.52-1.12,3.03-2.09,1.3-2.43,2.45-7.34,4.67-9.17,1.73-1.43,15.85-4.34,7.6-6.21-7.63-1.73-11.76-4.07-10.93-13.21ZM777.84,381.31c-8.66,2.34-5.35,15.85,3.68,14.15,9.86-1.86,6.28-16.84-3.68-14.15Z"/>
  <path class="st4" d="M934.47,700.85v233.62h-284.72c8.19-4.35,18.46-4.46,26.7-8.77.51-.27,8.47-7.11,8.72-7.63,5.37-11.22-6.79-12.33-14.8-8.97-11.63,4.88-16.69,15.75-26.47,22.46-.06-.26-1.35-.69-1.13-1.86l15.04-34.6c.37-.5,10.3-5.76,10.91-5.88,5.32-1.1,13.69.64,19.69-.02,12.29-1.36,34.1-4.68,39.05-17.92,3.42-9.14-3.69-15.54-12.73-15.72-9.27-.19-17.51,5-24.81,10.34-3.07,2.24-18.18,14.62-19.85,16.72-1.02,1.28-1.17,2.15-1.35,3.69l-5.78-2.12,39.23-83.13c1-1.82,3.14-.64,4.51-.91,21.5-4.22,35.53,1.36,54.31-14.71,21.5-18.39,6.02-30.51-17.51-22.22-1.62.57-14.23,7.11-14.9,7.73-7.36,1.77-3.59-6.07-4.38-11.68,6.62-12.93,13.07-26.14,18.98-39.42,3.73-1,7-4.48,10.22-4.38,18.98.61,38.02-6.27,57.61-7.36,24.13-1.35,48.67,2.96,73.05,1.51,17.16-1.03,33.56-5.69,50.39-8.75Z"/>
  <path class="st15" d="M570.9,668.73c15.22,9.93,28,22.44,43.98,31.22,35.8,19.67,80.5,30.48,121.02,21.35.14-1.38.04-2.97,0-4.38l2.92,2.92c-.57.14-1.6,1.16-2.92,1.46-.55,5.37-3.04,8.61-4.8,13.45-14.15,18.81-23.04,54.39-36.32,71.73-1.26,1.64-1.52,2.99-4.13,2.42.73-1.83-1.37-3.68-1.47-4.38-2.77-18.5,3.15-36.02-3.32-55.82-8.71-26.67-31.46-25.54-30.32,5.5.39,10.5,4.6,21.5,10.33,30.23,2.41,3.67,17.08,19.66,20.39,20.09.82,2.69,3.75,5.82,4.14,8.38.62,4.06-28.04,61.33-32.3,70.85-.97,2.18-.21,4.78-3.96,3.99,1.31-15.9,1.19-65.41-25.23-59.55-10.34,2.29-8.42,16.84-6.16,24.51,4.75,16.13,19.83,25.7,31.39,36.51-1.62,12.84-14.6,32.23-18.98,45.26h-1.46c-5.17-13.11-1.55-37.42-14.65-45.94-7.28-4.74-13.91-3.26-14.48,5.97-1.11,18.06,14.88,28.89,26.21,39.97h-134.33c10.75-4.79,21.85-8.91,31.36-16.09,6.58-4.97,18.1-18.17,20.89-25.83,6.87-18.86-5.08-32.52-24.51-29.62-1.83-2.8-6.61-3.57-9.47-3-1.68.34.22,4.21-1.56,4.56-3.01.58-7.55-.59-10.87-.11.95-7.7,8.73-13.64,5.83-21.89,2.6-4.65,4.94-8.14,7.3-13.14,19.52-1.14,39.96.82,56.21-11.68,4.11-3.16,7.4-8.42,10.95-11.68,8.17-7.5,17.29-12.28,22.18-23.82,5.52-13.03,2.52-28.23-14.1-27.3-23.46,1.31-46.47,38.56-60.64,55.5-2.23,2.66-13.65,12.21-14.6,14.6-.93.14-2.11-.2-2.92,0,6.82-15.81,27.41-44.69,17.34-61.87-8.39-14.3-25.15,13.14-27.47,21.8-4.34,16.17.6,26.39,2.83,41.53.49,3.31,2.1,7.54,1.22,10.62-.51,1.79-3.3,3.72-4.44,5.88-10.48,19.91-17.59,35.72-25.99,56.51-.33.81-.99,1.73-1.46,2.92-1.34,3.41-1.95,6.22-2.92,8.76-.35.92-2.42,2.61-3.22,4.77-2.21,5.96-4.39,12.31-5.54,18.59h-5.84c-1.93-58.02,2.22-113.03,15.39-169.37,1.08-4.64,2.22-4.92,2.24-5.26.73-8.48,1.11-8.61,4.17-16.29,2.61-6.54,15.17-48.1,17.86-49.75,5.23-.64,10.57-.11,15.82-.25,4.36-.12,8.77.03,13.14,0h1.46c2.9-.03,5.87.17,8.76,0,1.24-.07,2.53-.05,2.92-1.46.48-.06.99.09,1.46,0,.49-.09,1.04.12,1.46,0,9.88-2.9,24.04-14.64,29.2-23.36Z"/>
  <path class="st6" d="M524.18,862.92c19.43-2.9,31.39,10.76,24.51,29.62-2.79,7.66-14.32,20.86-20.89,25.83-9.51,7.19-20.61,11.31-31.36,16.09h-33.58c1.16-6.28,3.33-12.63,5.54-18.59.8-2.16,2.87-3.85,3.22-4.77,2.48-2.96,7.37-4.3,2.92-8.76.47-1.19,1.13-2.11,1.46-2.92,7.33-.12,4.65-7.55,6.54-10.3.27-.39,4.75-3.95,6.61-5.76,8.63-8.42,22.88-18.62,35.04-20.44Z"/>
  <path class="st14" d="M528.56,630.77c-8.64,14.93-13.2,25.52-20.44,40.88-2.16,4.58-7.95,6.13-7.3,13.14.11,1.15-.4,3.86.07,4.27,2.31,2.05,14.17-3.8,11.61,4.49-5.25.14-10.59-.39-15.82.25-2.68,1.66-15.25,43.21-17.86,49.75-3.06,7.67-3.45,7.8-4.17,16.29-.03.34-1.16.62-2.24,5.26-13.17,56.34-17.31,111.35-15.39,169.37h-5.84c4.55-18.99-14.57-23.58-21.9-37.96,1.97,1.21,3.27,3.34,5.83,2.91,1.12-4.12-.06-8.23.02-12.31.06-2.66,1.45-2.15,1.45-2.29,2.88,12.42,2.33,20.98,14.59,27.74,0-29.82.75-60.05,4.58-89.62.8-6.15,8.17-39.36,6.84-41.51-.36-.58-2.95-1.08-4.17-2.4-1.12-1.21-1.16-3.53-1.39-3.72l2.92-2.92c.09.29,3.4,4.21,4.36,4.37,3.35-13.59,6.96-27.22,11.31-40.53,2.09-6.39,16.76-43.35,15.78-45.57-3.37-1.64-3.89-5.56-5.17-7.34h4.38c.67,2.35,1.28,5.38,4.36,4.38,1.86-4.97,3.76-10.36,6.07-15.12,7.23-14.88,17.42-37.23,26.08-50.58.27-.42,4.83-6.08,5.84-7.3,2.01-2.44,5.45-6.33,8.73-6.58l-13.11,22.65Z"/>
  <path class="st7" d="M281.8,934.47h-18.98l-28.71-23.86c-1.5-5.14-5.65-8.51-8.02-13.15-9.01-17.69-5.24-35.63,17.29-23.13,18.96,10.52,29.34,41.29,38.42,60.14Z"/>
  <path class="st13" d="M743.19,719.83c-5.91,13.28-12.36,26.5-18.98,39.42-5.77,11.26-14.42,22.18-17.52,35.04-.45,1.87-1.77,2.93,0,5.84-1.37.27-3.51-.91-4.51.91l-39.23,83.13,5.78,2.12c-.11.95.08,1.96,0,2.92-.61.13-10.54,5.38-10.91,5.88l-15.04,34.6c-.22,1.17,1.07,1.6,1.13,1.86.19.83-.13,1.99,0,2.92h-8.76c4.38-13.03,17.37-32.42,18.98-45.26.06-.48-.04-.98,0-1.46,3.76.79,2.99-1.82,3.96-3.99,4.26-9.53,32.92-66.79,32.3-70.85-.39-2.56-3.32-5.69-4.14-8.38.95.12,1.96-.08,2.92,0,.1.7,2.2,2.55,1.47,4.38,2.61.56,2.88-.78,4.13-2.42,13.28-17.34,22.17-52.92,36.32-71.73,1.75-4.84,4.24-8.08,4.8-13.45,1.32-.3,2.35-1.32,2.92-1.46,1.25-.3,3.18.32,4.38,0Z"/>
  <path class="st9" d="M267.2,719.83c.97,2.58,2.65,5.12,2.79,5.49,1.83,4.99,11.88,35.49,13.29,36.85,2.86,2.74,4.05-4.51,4.36-5.84,2.42-.51,3.25,1.1,4.38,2.92-1.75,2.05-5.84,8.26-5.91,10.88-.24,9.77,5.18,27.87,5.89,39.51.62,10.14-.05,21.12.01,31.38.05,6.82.97,13.54,0,20.44-1.04,1.46-1.36,4.4-2.92,5.83,7.78,2.27,8.67-8.27,11.9-13.7.79-1.33,2.51-2,2.71-2.35.93,5.72-3.2,15.05,4.38,13.14-.13.07.63,2.15-1.09,2.85-2.41.98-14.52,3.24-15.04,5.41l-1.39,61.82h-4.38l1.47-127.04c-7.18.74-13.55-.36-20.45-1.45-1.12-4.68,3.57-2.37,7.69-3.27,2.42-.53,4.67-1.59,6.91-2.57.57.78,5.04,3.81,5.83,2.91-.58-21.76-7.67-42.34-14.8-62.6-.77-.76-3.01.03-4.17-.18-1.11-2.94,2.79-3,2.96-3.66.87-3.38-3.88-5.19-7.34-8.02.07-.96-.11-1.97,0-2.92.27-2.32.79-4.47,2.92-5.84Z"/>
  <path class="st14" d="M129.95,781.16c-3.23,3.43-5.3,10.43-11.54,12.33,7.67,27.08,12.58,55.07,14.69,83.16l2.69,6.72c0,.82,1.76,2.89,1.46,4.38-.43.25-1.92-.42-2.77.09l2.77,46.63h-4.38l-2.99-45.19c-2.77.34-4.89-.92-7.23-1.53-.33-2.74.47-6.2,0-8.76l7.29,7.29c-1.87-30.81-7.89-61.02-14.49-91.06-4.73-.11-5.67-2.87-7.4-3.84.43-2.42,7.35-4.86,8.76-4.38.29.1,1.82,3.74,2.9,2.92-.11-3.51,3.72-7.61,4.4-10.22l5.84,1.46Z"/>
  <path class="st2" d="M633.69,934.47h-2.92c-11.33-11.08-27.33-21.91-26.21-39.97.57-9.23,7.19-10.7,14.48-5.97,13.11,8.52,9.49,32.83,14.65,45.94Z"/>
  <path class="st2" d="M643.91,931.55c9.78-6.71,14.84-17.58,26.47-22.46,8.01-3.36,20.16-2.25,14.8,8.97-.25.52-8.21,7.37-8.72,7.63-8.24,4.31-18.51,4.42-26.7,8.77h-5.84c-.13-.93.19-2.09,0-2.92Z"/>
  <path class="st12" d="M503.74,573.82c-.71,3.08,2.24,2.74,3.35,4.74,20.68,37.48-25.76,72.1-16.49,104.76h-4.38c-13.28-18.35-28.47-40.21-24.73-64.88,1.05-6.95,7.75-13.7,7.21-21.26.71-.45,2.45-.2,3.67-1.38,10.01-9.65,13.53-23.58,31.37-21.98Z"/>
  <path class="st1" d="M735.89,716.91c-.5-15.81-2.39-27,5.06-42.4,5.78-11.95,30.49-34.28,40.53-17.06,7.87,13.48-3.57,30.91-11.4,41.82l-16.67,16.18c-3.23-.1-6.49,3.38-10.22,4.38-1.2.32-3.13-.3-4.38,0l-2.92-2.92Z"/>
  <path class="st12" d="M570.9,668.73c-5.16,8.72-19.32,20.46-29.2,23.36h-1.46c-.47.09-.98-.06-1.46,0-1.21.16-2.44.12-2.92,1.46-2.89.17-5.86-.03-8.76,0-.46,0-.97,0-1.46,0-4.37.03-8.78-.12-13.14,0,2.56-8.29-9.31-2.44-11.61-4.49-.47-.41.04-3.12-.07-4.27,5.68-2.27,8.51-9.85,11.68-13.14,8.91-9.26,26.8-21.26,39.42-23.36,16.23-2.71,29.18,3.19,18.98,20.44Z"/>
  <path class="st3" d="M503.74,573.82c5.89.53,9.29,5,10.04,11.09s-1.13,16.5.18,21.53c.31,1.19,3,.82,2.97,1.7-.07,2.1-2.27,3.16-2.61,4.73-.38,1.76-2.18,11.52-1.83,12.01.19.27,5.44,1.68,6.38,1.59.86-.08.96-2.41,2.72-3.47,1.52-.92,5.31-.79,5.5-1,1.41-1.59-1.96-11.69-1.45-14.59,4.39-.94,3.87,5.58,7.29,7.29-1.01,1.22-5.57,6.88-5.84,7.3-8.66,13.35-18.85,35.7-26.08,50.58-2.31,4.76-4.21,10.15-6.07,15.12-3.08,1-3.69-2.03-4.36-4.38-9.27-32.67,37.17-67.28,16.49-104.76-1.11-2.01-4.06-1.66-3.35-4.74Z"/>
  <path class="st3" d="M528.56,630.77c4.69-1.02,2.24,5.05,5.21,5.7,1.37.3,5.54-2.17,6.46-1.33.69.63,2.79,13.28,11.69,13.15-12.62,2.11-30.51,14.1-39.42,23.36h-4.38c7.25-15.37,11.8-25.95,20.44-40.88Z"/>
  <path class="st11" d="M112.41,100.75c.42.44,1.76,9.26,3.74,11.61l12.33,5.9c-11.11.75-13.88,3.82-16.09,13.87-1.87,8.5-6.66-9.66-7.59-10.6-1.5-1.51-10.29-1.1-11.34-4.69,3.21-.45,9.41-1.48,11.66-3.68,1.8-1.75,4.1-15.69,7.3-12.4Z"/>
  <path class="st11" d="M204.41,284.71c-.83,9.15,3.3,11.48,10.93,13.21,8.25,1.87-5.86,4.78-7.6,6.21-2.22,1.83-3.37,6.74-4.67,9.17-.52.97-.65,4.93-3.03,2.09-.48-.57-.67-10.22-1.73-11.42-1.53-1.73-12.31-.05-11.41-6.1,8.14,1.31,14.43-5.04,13.14-13.16h4.37Z"/>
  <path class="st11" d="M654.12,173.74c-.58.77-7.3.9-8.41,1.82-1.8,1.48-2.2,10.12-4.7,11.33-.64-3.28-2.73-9.58-5.19-11.65-3.05-2.57-6.29.34-5.05-5.85,2.37.13,4.63.1,6.68-1.35,3.4-2.41,2.01-7.49,4.99-8.87-2.7,6.66,13.99,11.5,11.69,14.58Z"/>
  <path class="st11" d="M777.84,381.31c9.96-2.69,13.54,12.29,3.68,14.15-9.04,1.7-12.35-11.81-3.68-14.15Z"/>
  <path class="st11" d="M316.46,27.95c5.32-.74,7.8,5.8,4.14,10.11-7.98,9.4-15.05-8.6-4.14-10.11Z"/>
  <path class="st11" d="M208.26,89.16c6.55-1.92,9.66,10.63,1,11.35-6,.5-5.69-9.97-1-11.35Z"/>
  <path class="st11" d="M399.69,252.22c-5.7,5.83-12.52-5.52-5.46-9.18,5.43-2.81,9.63,4.9,5.46,9.18Z"/>
  <path class="st6" d="M436.57,884.82c0,.14-1.39-.37-1.45,2.29-.09,4.07,1.1,8.19-.02,12.31-2.56.42-3.86-1.7-5.83-2.91-.54-.33-.94-1.13-1.46-1.46-1.1-2.11-1.03-4.89-3.04-6.5-3.42-2.75-7.74-5.21-11.56-8.1-17.49-13.21-38.09-57.59-39.48-79.52-1.36-21.43,6.34-50.11,30.02-25.64,19.08,19.71,32.55,82.58,32.82,109.54Z"/>
  <path class="st8" d="M292.02,841.02c4.42.04,3.75-1.97,4.4-5.1,2.12-10.2,3.49-19.1,8.18-28.33,6.4-12.61,26.26-29.42,39.94-33.05,28.33-7.52,15.67,39.62,10.18,53.67-.51,1.29-2.96,1.28-3.66,3.88s-.31,8.62-.63,8.93c-.45.43-3.84-.65-5.5.31-.61.35-6.1,8.13-9.21,10.53-3.93,3.04-14.72,9.38-19.29,11.38-3.05,1.33-7.74.82-8.33,1.15-7.58,1.91-3.45-7.42-4.38-13.14,1.16-2.09,1.8-5.43,3.02-7.63.5-.9,7.51-3.42-.07-4.04-3.91,6.09-7.17,12.89-11.06,18.95-1.04,1.63-3.12,2.31-3.57,2.94.97-6.9.05-13.62,0-20.44ZM322.66,822.03c.23-.19,1.37-4.71,1.47-5.82-1.68.93-5.74,4.45-4.36,5.82.9-.09,2.61.23,2.89,0ZM319.76,823.51c-1.59-1.59-4.5,1.31-2.9,2.9s4.5-1.31,2.9-2.9ZM316.84,827.89c-2.1-1.26-4.32,3.52-4.7,4.48-.73,1.84-2.01,2.96-1.12,5.72l5.82-10.21Z"/>
  <path class="st8" d="M268.66,740.27c-34.15-6.35-60.11-17.26-71.62-53.22-2.34-7.32-6.86-29.91,2.57-32.62,15.67-4.51,43.28,13.39,52.09,26.14,8.47,12.25,10.66,26.43,15.5,39.26-2.13,1.37-2.65,3.52-2.92,5.84l-11.68-10.95c-2.58-2.03-4.33-10.86-8.77-8.75l17.97,22.23c.77.7,2.24.19,2.48.39,3.46,2.82,8.2,4.64,7.34,8.02-.17.66-4.07.73-2.96,3.66ZM240.17,699.42l-.69.69,3.64,3.64.69-.69-3.64-3.64Z"/>
  <path class="st6" d="M459.93,772.4l-2.92,2.92c-2.22-1.95-9.12-4.81-12.01-7.36-15.47-13.61-31.28-38.01-33.23-59.09-2.86-30.98,20.02-27.73,32.38-6.11s9,48.18,15.78,69.63Z"/>
  <path class="st7" d="M287.64,756.34c4.54-19.28-7.69-30.29-8.74-47.48-.68-11.11,4.07-37.41,19.28-29.45,16.59,8.68,25.8,40.73,15.78,57.26-4.88,8.05-16.5,16.21-21.95,22.59-1.13-1.82-1.96-3.43-4.38-2.92Z"/>
  <path class="st7" d="M281.8,800.14c-2.24.98-4.49,2.05-6.91,2.57-4.11.9-8.8-1.41-7.69,3.27-16.86-2.68-29.44-8.4-39.43-22.63-20.3-28.92,11.74-32.47,29.93-18.25,11.93,9.32,16.16,24.25,24.09,35.04Z"/>
  <path class="st10" d="M140.17,770.94c-7.03-1.76-6.41,3.52-8.76,8.76-.47.52-.99.96-1.46,1.46l-5.84-1.46c3.47-13.3,1.64-30.48,5.84-43.8s23.48-35.82,28.55-11.76c4.23,20.07-6.75,32.95-18.33,46.81Z"/>
  <path class="st10" d="M137.25,887.74c.3-1.49-1.46-3.56-1.46-4.38-.01-6.45,12.77-41.84,16.89-48.09,11.07-16.82,31.56-20.91,25.89,5.45-3.93,18.24-25.62,38.02-41.32,47.02Z"/>
  <path class="st10" d="M122.65,878.98c.47,2.56-.33,6.02,0,8.76-.84-.22-2.08.22-2.92,0l-2.92-1.46c-11.86-3.26-22.21-5.22-31.45-14.54-18.3-18.47-1.63-31.06,18.21-16.75,5,3.61,18,18.14,19.08,23.99Z"/>
  <path class="st10" d="M96.37,765.1c.3.32.36,2.42,1.41,3.65,4.45,5.25,9.91,9.37,11.75,16.78,2.37.46,1.62-4.59,1.44-5.83h2.92c.59,2.06,2.51,4.84,2.92,7.3-1.41-.48-8.33,1.96-8.76,4.38-11.86-6.63-33.17-10.72-40.82-21.56s-5.15-17.93,9.44-16.39c7.38.78,14.77,6.43,19.7,11.68Z"/>
  <path class="st1" d="M90.53,724.21c-.97,0-1.95,0-2.92,0-13.9-.1-35.65-23.88-27.09-36.58,6.11-9.06,19.56-.34,23.96,6.86,6.77,11.08,4.2,19.11,6.05,29.72Z"/>
  <path class="st3" d="M124.11,779.7c-.68,2.61-4.5,6.7-4.4,10.22-1.08.82-2.61-2.82-2.9-2.92-.41-2.46-2.33-5.24-2.92-7.3-1.05-3.67-1.44-7.51-2.92-11.68,6.11,1.15,6.56,6.34,5.85,11.69,2.59.97,5.83-.84,5.83-3.66v-29.2c0-3.14,3.87-9.79,7.3-10.95-4.2,13.32-2.37,30.51-5.84,43.8Z"/>
  <path class="st14" d="M90.53,724.21c1.03,5.87,16.73,33.35,20.44,43.8,1.48,4.17,1.87,8.01,2.92,11.68h-2.92c-.75-5.08-3.88-11.16-5.84-16.06-5.32-13.3-13.35-25.78-17.52-39.42.97,0,1.95,0,2.92,0Z"/>
  <path class="st3" d="M105.13,763.64c1.96,4.9,5.1,10.98,5.84,16.06.18,1.24.93,6.29-1.44,5.83-1.84-7.41-7.3-11.53-11.75-16.78-1.04-1.23-1.11-3.33-1.41-3.65l8.76-1.46Z"/>
  <path class="st14" d="M413.21,880.44c3.82,2.88,8.14,5.35,11.56,8.1,2.01,1.62,1.95,4.4,3.04,6.5-6.66-4.14-11.48-6.42-14.6-14.6Z"/>
  <path class="st0" d="M271.59,445.32c-2.41-9.64,9.3-8.85,7.28-2.2-.74,2.43-5.13,2.45-7.28,2.2Z"/>
  <path class="st14" d="M140.17,770.94c-3.48,4.16-6.58,6.37-8.76,8.76,2.35-5.24,1.73-10.52,8.76-8.76Z"/>
  <path class="st14" d="M119.73,887.74c-2.01-.53-2.76-1.42-2.92-1.46l2.92,1.46Z"/>
  <path class="st2" d="M728.59,770.94c.67-.62,13.28-7.16,14.9-7.73,23.53-8.29,39.01,3.83,17.51,22.22-18.78,16.07-32.81,10.49-54.31,14.71-1.77-2.91-.45-3.97,0-5.84,7.18-5.68,13.14-12.7,19.81-18.95,1.59-1.48,1.86-4.21,2.09-4.41Z"/>
  <path class="st2" d="M668.73,886.28c.18-1.54.33-2.41,1.35-3.69,1.68-2.1,16.78-14.47,19.85-16.72,7.29-5.33,15.53-10.53,24.81-10.34,9.03.18,16.14,6.58,12.73,15.72-4.95,13.25-26.76,16.56-39.05,17.92-5.99.66-14.37-1.07-19.69.02.08-.96-.11-1.97,0-2.92Z"/>
  <path class="st3" d="M724.21,759.26c.79,5.61-2.98,13.45,4.38,11.68-.23.21-.5,2.93-2.09,4.41-6.67,6.25-12.63,13.27-19.81,18.95,3.11-12.87,11.75-23.78,17.52-35.04Z"/>
  <path class="st6" d="M582.58,805.98c-5.92-.23-10.07,3.3-13.69,7.49-.88,1.02-.6,3.41-1.16,3.92-2.26,2.07-19.09,2.43-22.14,3.19-1.13.28-.92,2.92-1.82,2.95-1.31.05-5.57-2.45-6.45-1.5-.95,1.02,3.32,6.45-8.03,4.37-9.08-1.66,1.07-7.28.75-11.67l7.27,2.91-7.29-7.29c14.17-16.93,37.18-54.18,60.64-55.5,16.62-.93,19.62,14.27,14.1,27.3-4.89,11.53-14.01,16.32-22.18,23.82Z"/>
  <path class="st1" d="M686.25,804.52c-3.31-.43-17.98-16.42-20.39-20.09-5.73-8.73-9.95-19.73-10.33-30.23-1.14-31.04,21.61-32.17,30.32-5.5,6.46,19.8.55,37.32,3.32,55.82-.96-.08-1.97.12-2.92,0Z"/>
  <path class="st12" d="M512.5,824.96c-2.3.58-4.46,2.14-7.3,1.46-2.24-15.14-7.17-25.36-2.83-41.53,2.32-8.66,19.08-36.09,27.47-21.8,10.08,17.17-10.51,46.06-17.34,61.87Z"/>
  <path class="st2" d="M654.13,887.74c-.04.48.06.98,0,1.46-11.56-10.8-26.63-20.38-31.39-36.51-2.26-7.67-4.18-22.22,6.16-24.51,26.43-5.85,26.55,43.65,25.23,59.55Z"/>
  <path class="st12" d="M582.58,805.98c-3.55,3.26-6.84,8.52-10.95,11.68-16.26,12.5-36.7,10.54-56.21,11.68.42-.88-.4-3.37,0-4.38.95-2.39,12.37-11.94,14.6-14.6l7.29,7.29-7.27-2.91c.32,4.39-9.83,10.01-.75,11.67,11.35,2.07,7.09-3.36,8.03-4.37.88-.95,5.13,1.55,6.45,1.5.9-.03.69-2.67,1.82-2.95,3.05-.76,19.87-1.12,22.14-3.19.56-.51.28-2.9,1.16-3.92,3.62-4.19,7.77-7.72,13.69-7.49Z"/>
  <path class="st14" d="M515.42,824.96c-.4,1.01.42,3.5,0,4.38-2.36,5-4.7,8.49-7.3,13.14-6.44,11.51-13.85,22.28-18.56,34.75-.47,1.24-2.38,5.52-.42,6.13-1.86,1.81-6.34,5.38-6.61,5.76-1.88,2.74.8,10.18-6.54,10.3,8.4-20.79,15.51-36.6,25.99-56.51,1.14-2.16,3.93-4.09,4.44-5.88.88-3.07-.73-7.3-1.22-10.62,2.84.68,5-.88,7.3-1.46.81-.2,1.99.14,2.92,0Z"/>
  <path class="st3" d="M508.12,842.48c2.89,8.25-4.89,14.2-5.83,21.89,3.32-.49,7.86.69,10.87.11,1.78-.34-.12-4.22,1.56-4.56,2.85-.57,7.63.19,9.47,3-12.16,1.82-26.41,12.02-35.04,20.44-1.96-.61-.05-4.89.42-6.13,4.71-12.47,12.12-23.24,18.56-34.75Z"/>
  <path class="st14" d="M474.53,902.35c4.45,4.46-.44,5.81-2.92,8.76.97-2.54,1.58-5.35,2.92-8.76Z"/>
  <path class="st14" d="M538.78,692.09c-.39,1.41-1.68,1.39-2.92,1.46.48-1.34,1.71-1.3,2.92-1.46Z"/>
  <path class="st14" d="M527.1,693.55h-1.46c.49,0,1,0,1.46,0Z"/>
  <path class="st14" d="M541.7,692.09c-.42.12-.97-.09-1.46,0h1.46Z"/>
  <path class="st2" d="M512.5,671.65c-3.17,3.29-6,10.87-11.68,13.14-.65-7.02,5.14-8.56,7.3-13.14h4.38Z"/>
  <path class="st13" d="M292.02,861.46c.45-.63,2.52-1.31,3.57-2.94,3.89-6.06,7.15-12.87,11.06-18.95,7.59.62.57,3.14.07,4.04-1.22,2.2-1.87,5.54-3.02,7.63-.19.35-1.92,1.02-2.71,2.35-3.22,5.42-4.12,15.96-11.9,13.7,1.56-1.43,1.88-4.37,2.92-5.83Z"/>
  <path class="st5" d="M0,385.47c17.09-2.12,32.9-9.75,49.33-14.18,101.57-27.38,182.82-7.64,251.41,71.48,42.89,49.48,66.68,117.85,130.42,145.95,4.98,2.19,31.76,12.03,34.98,11.37,1.39-.29,1.86-2.46,2.55-2.9.54,7.56-6.16,14.32-7.21,21.26-3.74,24.68,11.45,46.54,24.73,64.88,1.29,1.78,1.8,5.7,5.17,7.34.98,2.22-13.7,39.17-15.78,45.57-4.35,13.31-7.96,26.94-11.31,40.53-.96-.16-4.27-4.08-4.36-4.37-6.79-21.46-3.91-48.88-15.78-69.63s-35.25-24.87-32.38,6.11c1.95,21.08,17.76,45.47,33.23,59.09,2.9,2.55,9.79,5.41,12.01,7.36.22.2.26,2.51,1.39,3.72,1.22,1.32,3.82,1.82,4.17,2.4,1.33,2.15-6.04,35.36-6.84,41.51-3.82,29.56-4.58,59.8-4.58,89.62-12.26-6.76-11.7-15.32-14.59-27.74-.27-26.96-13.74-89.83-32.82-109.54-23.68-24.47-31.38,4.21-30.02,25.64,1.39,21.93,21.99,66.31,39.48,79.52,3.12,8.18,7.95,10.46,14.6,14.6.52.33.92,1.13,1.46,1.46,7.33,14.38,26.45,18.97,21.9,37.96h-160.61l1.39-61.82c.52-2.17,12.63-4.43,15.04-5.41,1.72-.7.95-2.78,1.09-2.85.6-.33,5.29.18,8.33-1.15,4.56-2,15.35-8.34,19.29-11.38,3.11-2.4,8.6-10.18,9.21-10.53,1.66-.95,5.05.12,5.5-.31.33-.31-.05-6.41.63-8.93s3.16-2.58,3.66-3.88c5.5-14.05,18.15-61.19-10.18-53.67-13.67,3.63-33.54,20.45-39.94,33.05-4.69,9.23-6.05,18.12-8.18,28.33-.65,3.13.02,5.13-4.4,5.1-.07-10.26.61-21.24-.01-31.38-.71-11.64-6.13-29.73-5.89-39.51.06-2.62,4.15-8.83,5.91-10.88,5.45-6.38,17.07-14.53,21.95-22.59,10.02-16.53.81-48.58-15.78-57.26-15.21-7.96-19.96,18.33-19.28,29.45,1.05,17.18,13.28,28.2,8.74,47.48-.31,1.33-1.5,8.58-4.36,5.84-1.41-1.36-11.46-31.85-13.29-36.85-.14-.37-1.81-2.91-2.79-5.49-4.83-12.83-7.03-27.01-15.5-39.26-8.81-12.75-36.42-30.65-52.09-26.14-9.43,2.71-4.92,25.3-2.57,32.62,11.52,35.96,37.47,46.87,71.62,53.22,1.16.22,3.41-.57,4.17.18,7.13,20.26,14.22,40.84,14.8,62.6-.79.9-5.26-2.13-5.83-2.91-7.93-10.79-12.17-25.72-24.09-35.04-18.19-14.21-50.23-10.67-29.93,18.25,9.99,14.23,22.57,19.95,39.43,22.63,6.9,1.09,13.27,2.19,20.45,1.45l-1.47,127.04h-4.38c-9.08-18.85-19.46-49.62-38.42-60.14-22.54-12.5-26.3,5.45-17.29,23.13,2.36,4.64,6.52,8.02,8.02,13.15l28.71,23.86h-125.57l-2.77-46.63c.84-.52,2.34.16,2.77-.09,15.69-9,37.39-28.78,41.32-47.02,5.67-26.36-14.82-22.27-25.89-5.45-4.11,6.25-16.9,41.64-16.89,48.09l-2.69-6.72c-2.11-28.09-7.02-56.08-14.69-83.16,6.24-1.9,8.31-8.9,11.54-12.33.47-.5.99-.94,1.46-1.46,2.18-2.39,5.28-4.6,8.76-8.76,11.58-13.85,22.56-26.74,18.33-46.81-5.07-24.06-24.53-.98-28.55,11.76-3.44,1.17-7.3,7.81-7.3,10.95v29.2c0,2.82-3.24,4.63-5.83,3.66.72-5.35.26-10.54-5.85-11.69-3.71-10.45-19.41-37.93-20.44-43.8-1.86-10.61.71-18.64-6.05-29.72-4.4-7.21-17.85-15.93-23.96-6.86-8.56,12.7,13.19,36.49,27.09,36.58,4.17,13.64,12.2,26.12,17.52,39.42l-8.76,1.46c-4.93-5.24-12.32-10.9-19.7-11.68-14.59-1.53-17.45,5.03-9.44,16.39s28.96,14.93,40.82,21.56c1.73.97,2.67,3.72,7.4,3.84,6.6,30.04,12.62,60.25,14.49,91.06l-7.29-7.29c-1.08-5.85-14.08-20.38-19.08-23.99-19.84-14.31-36.51-1.72-18.21,16.75,9.24,9.32,19.59,11.28,31.45,14.54.16.04.91.93,2.92,1.46.84.22,2.08-.22,2.92,0,2.34.61,4.45,1.87,7.23,1.53l2.99,45.19H0V385.47ZM271.59,445.32c2.15.25,6.54.23,7.28-2.2,2.03-6.65-9.69-7.44-7.28,2.2Z"/>
  <path class="st13" d="M316.84,827.89l-5.82,10.21c-.89-2.76.38-3.89,1.12-5.72.38-.96,2.6-5.74,4.7-4.48Z"/>
  <path class="st13" d="M319.76,823.51c1.59,1.59-1.31,4.5-2.9,2.9s1.31-4.5,2.9-2.9Z"/>
  <path class="st13" d="M322.66,822.03c-.28.23-1.99-.09-2.89,0-1.38-1.37,2.68-4.9,4.36-5.82-.1,1.11-1.24,5.63-1.47,5.82Z"/>
  <path class="st13" d="M264.28,728.59c-.24-.19-1.71.31-2.48-.39l-17.97-22.23c4.45-2.11,6.19,6.72,8.77,8.75l11.68,10.95c-.11.95.07,1.96,0,2.92Z"/>
  <rect class="st13" x="241.16" y="699.01" width=".97" height="5.14" transform="translate(-425.32 376.36) rotate(-45)"/>
</svg>