<?xml version="1.0" encoding="UTF-8"?>
<svg id="_图层_1" data-name="图层_1" xmlns="http://www.w3.org/2000/svg" version="1.1" viewBox="0 0 1920 1080">
  <!-- Generator: Adobe Illustrator 29.1.0, SVG Export Plug-In . SVG Version: 2.1.0 Build 142)  -->
  <defs>
    <style>
      .st0 {
        fill: #e6eed9;
      }

      .st1 {
        fill: #4c7b54;
      }

      .st2 {
        fill: #f7f3d1;
      }

      .st3 {
        fill: #c8e0c1;
      }

      .st4 {
        fill: #668261;
      }

      .st5 {
        fill: #f1f8e4;
      }

      .st6 {
        fill: #4c7853;
      }

      .st7 {
        fill: #9a9d77;
      }

      .st8 {
        fill: #d5e4c9;
      }

      .st9 {
        fill: #cce3c5;
      }

      .st10 {
        fill: #f1f5d7;
      }

      .st11 {
        fill: #617d5d;
      }

      .st12 {
        fill: #f7f3d0;
      }

      .st13 {
        fill: #f5f2cf;
      }

      .st14 {
        fill: #b5c48a;
      }

      .st15 {
        fill: #d9e4cb;
      }

      .st16 {
        fill: #dbe3c6;
      }

      .st17 {
        fill: #f4f2cf;
      }

      .st18 {
        fill: #f7fbec;
      }

      .st19 {
        fill: #4a7953;
      }

      .st20 {
        fill: #d7e4ca;
      }
    </style>
  </defs>
  <path class="st0" d="M852,487.5v-187.5h216.75v294.75c-5.19,1.93-11.53,8.72-14.25,13.5-15.23-2.46-30.98-10.57-42.01-21.36-14.44-14.13-23.56-32.16-35.12-48.1-25.88-35.7-62.19-57.53-107.74-54.28-5.74.41-11.9,2.23-17.63,2.99ZM975.48,314.36c-2.71.5-3.49,7.4,1.99,5.75,4.25-1.28.63-6.23-1.99-5.75ZM920.72,345.8c-1.54.45-3.36,4.68-.08,5.23,5.49.92,3.42-6.2.08-5.23ZM871.49,351.75c-1.35-1.48-1.25.6-1.49,1.13-.72,1.61-1.18,4.43-2.59,5.66-1.07.93-4.02,1.3-4.17,1.47-1.33,1.57,2.5,1.81,3.27,2.33,2.35,1.59,3.74,3.69,3.48,6.66,2.43.56,1.19-2.08,1.83-3.79,1.05-2.81,4.95-5.01,7.91-4.47-1.13-1.69-5.02-1.46-6.35-3.02-.98-1.15-1.7-5.74-1.91-5.98ZM1016.77,424.58c-3.95.99-1.36,8.69,2.15,4.46,2.03-2.45.23-5.05-2.15-4.46ZM918.75,446.24h-2.25c.66,4.17-2.57,7.43-6.75,6.76-.46,3.11,5.08,2.24,5.86,3.13.54.62.64,5.57.89,5.87,1.35,1.61,1.96-2.73,2.34-3.27.64-.9,1.63-2.12,2.52-2.73,1.17-.8,6.83-2.1,2.99-2.97s-6.04-2.09-5.61-6.79ZM995.95,475.55c-2.28-1.64-6.03,2.84-3.58,4.34,3.69,2.25,5.25-3.14,3.58-4.34Z"/>
  <path class="st15" d="M852,487.5c5.74-.76,11.89-2.58,17.63-2.99,45.55-3.26,81.86,18.58,107.74,54.28,11.56,15.94,20.68,33.97,35.12,48.1,11.03,10.79,26.79,18.91,42.01,21.36-9.17,16.1-.34,29.9,9,42.75.92,1.26,2.74,4.02,2.9,5.44-6.17,13.63-10.59,28.04-14.15,42.56-.23-.48-1.28-1.03-1.5-1.5-4.77-10.36-2.52-25.44-8.86-36.52s-18.1-12.77-16.63,3.14c1.01,10.88,9.12,23.31,17.07,30.35,1.54,1.36,5.74,3.39,6.92,4.53.12.12.04.95.48,1.44.51.56,1.61.69,1.78,1.35.34,1.3-.22,3.27-.01,4.71-.37.58-.52.79-.75,1.5-.59,1.82-1.09,3.25-.75,5.25.05.27.53.53.75.75.25.25.47.53.75.75-.23.67.47,1.17-.75,1.5-.5.13-1.64-.42-2.21,2.66-1.52,8.13-2.93,25.31-3.08,33.69-.04,2.45.8,4.73.79,6.4,0,.75,0,1.5,0,2.25,0,.25,0,.5,0,.75,0,.49.05,1.01,0,1.5-.17,1.68-.85,3.56-1.12,5.25-2.25-1.34-4.47-5.71-6.38-6.75-1.61-14.87-3.37-32.1-8.05-46.33-2.14-6.51-9.9-22.3-17.81-21.97-10.15.43-7.04,21.31-5.26,27.79,2.8,10.22,17.2,34.4,26.62,39.01.8,4.64,9.37,8.18,10.83,12.03.92,2.42.23,5,.42,7.47h-83.25c.98-10.37,1.15-20.76,1.5-31.16.03-.87.74-1.03.75-1.09,1.02-.4,1.98-1.14,3-1.5,1.69-.59,4.32-.14,3.75-2.25,4.42.35,11.28-3.68,14.94-6.44,4.86-3.66,10.27-12.33,11.84-18.16,1.17-4.33,3.58-20.17-1.82-21.75-7.49-2.19-22.39,9.93-25.72,16.34-4.13.61-4.79-3.95-7.5-4.5-.04-.49.03-1,0-1.5,3.6-2.59.43-9.16.75-12.31.03-.35,2.11-6.12,2.25-6.44,2.04-4.43,10.19-10.65,11.04-14.83,1.64-8.11-2.29-20.11-9.16-24.91-6.83-4.77-10.48,4.89-10.87,10.5-3.06-.6-.8,5.35-1.5,6-6.63.89-3.33-5.98-4.08-7.5-.3-.61-3.43-3.23-4.16-1.51-3.7-8.12-9.89-14.29-18.09-18.28-15.06-7.34-18.71-.34-14.11,14.11,5.56,17.49,20.51,26.22,38.21,27.42.99,3.85,3.28,7.79,4.5,12-2.44-.99-1.37,3.85-2.28,4.49-.24.17-3.75-.54-4.47-.74-4.99-1.34-7.65-6.31-13.89-6.73-7.17-.48-12.34.68-8.9,8.89,2.57,6.13,8.69,11.25,14.39,14.27,1.31.25,2.61.51,3.9.82,4.91,1.19,9.93,1.81,15,1.5l-.75,65.25h-3c.37-1.74-.13-2.64-.75-4.13-3.32-7.95-9.68-20.34-16.55-25.45-2.93-2.18-10.9-6.35-12.54-.64-2.43,8.49,7,18.46,12.65,23.78l8.94,6.44h-65.25l-1.5-18.75c3.35-.03,1.9-3.26,2.25-5.25,1.47-.24,5.06-.24,5.29-.37.93-.51,2.09-4.11,3.28-4.93,1.43-.99,3.18-.39,4.19-1.06,1.16-.76,5.36-10.39,6.69-11.85.99-1.09,2.69-1.02,2.95-1.38.33-.46,1.05-10.62.85-11.36-.13-.48-7.86-8.72-6.75-2.79-.38-.12-1.02.07-1.5,0-.17-.02-.59-.74-1.75-.72-3.41.05-3.26,1.58-4.97,3.4-.53.57-1.69.78-2.06,1.3-1.1,1.53-.49,4.45-1.16,5.6-.61,1.06-4.13,1.55-4.29,1.72-.44.48,1.43,5.27.72,5.96-.11.1-2.81.08-2.94-.05-1.86-1.74,2.57-8.33-3.8-7.45.96-3.64-5.92-23.64-5.19-24.67.18-.25,3.67-2.61,4.84-3.82.95-.98,1.29-2.39,1.86-3.01.2-.22,2.06-.22,2.67-1.51.41-.86-.46-2.05-.37-2.18.12-.17,2.41-.72,3.69-1.94,3.05-2.89,7.64-11.66,8.18-15.81,1.41-10.8-4.84-17.92-12.08-6.84-3.61,5.53-5.76,17.29-5.1,23.77-1.31,1.7-1.2,7.5-3.47,8.18-.74.22-1.55-.68-1.78-.68-.2-1.47-.39-3.07-.75-4.5-1.07-4.24-9.65-25.75-12.75-27,1.58-6.56-.67-16.58-7.5-19.5v-165ZM953.25,528.74c6.47.9,2.93-5.61.76-3.75-.14.12-.46,3.03-.76,3.75Z"/>
  <path class="st8" d="M867.75,705c-.38,1.9.59,1.62,2.25,1.5.42.24,1.44.69,1.5.75.73.66,1.21.64,1.63,1.8,2.22,6.11,3.94,17.48,5,24.19,1.15,7.26,1.92,14.69,2.36,22-.76-.19-1.64-1.53-2.24-2.25-4.41-5.25-7.38-12.47-14.22-15.41-12.04-5.18-13.14,4.54-5.22,11.22,5.75,4.85,12.06,5.21,18.69,7.18.58.17,2.92.92,3.04,1.23l1.46,22.77h-30v-81c4.74,3.02,10.91,3.89,15.75,6Z"/>
  <path class="st20" d="M1068.75,741c-1.77-.08-1.95,1.05-2.65,2.22-2.37,3.96-3.84,8.54-5.6,12.78-5.31.28-1.69.41-3.36,3.77-.93,1.87-3.13-.06-2.68,4.89.09.99.78,1.74.78,1.84,0,.25,0,.5,0,.75-5.99.4-1.04,7.38-6.75,7.5,0-1.25.02-2.5,0-3.75,2.26.42,1.45-1.15,1.5-2.59.37-11.07.5-21.95.81-32.21.1-3.16,4.83-11.48-.06-12.44.22-2.43-.15-5.04,0-7.5,1.22-.33.52-.83.75-1.5.71-2.04,1.17-4.6,1.5-6.75.15-.98.68-2.05.75-3s.18-2.99,0-3.75l15-43.5v83.25Z"/>
  <path class="st19" d="M1068.75,594.75v39c-1.56.6-1.89,4.98-2.25,5.25-.23.17-1.33-.16-1.5,0-.49.5.73,1.41.75,1.49.09.43-.03,1.01,0,1.5,0,.12-.01.43,0,.75.1,2.74-.07,5.51,0,8.25-.38-.2-1.63.13-2.25,0-9.34-12.85-18.17-26.65-9-42.75,2.72-4.78,9.06-11.57,14.25-13.5Z"/>
  <path class="st2" d="M957.75,780h-8.25l-8.94-6.44c-5.65-5.33-15.08-15.29-12.65-23.78,1.64-5.71,9.61-1.54,12.54.64,6.87,5.11,13.24,17.5,16.55,25.45.62,1.48,1.11,2.38.75,4.13Z"/>
  <path class="st19" d="M1068.75,751.5v28.5h-17.25c.51-3.91,3.8-8.95,3.75-12.75,0-.25,0-.5,0-.75,3.02-2.47,3.83-7.06,5.25-10.5.79-.04,2.52.26,2.91-.09.11-.1.54-2.14.84-2.91l4.5-1.5Z"/>
  <path class="st10" d="M954.75,678.75c.69,1.78,5.41,17.55,6.75,9.75,1.77-.03,2.6-.51,2.25,1.5-4.82,3.48-1.63,12.95-.75,18,.03.5-.04,1.01,0,1.5.89,10.17,1.23,21.28.75,31.5-.03.71-1.09,2.03-.82,4.16.2,1.56,1.81.76,1.57,2.59,0,.07-.72.23-.75,1.09-.35,10.4-.52,20.79-1.5,31.16h-1.5l.75-65.25c-5.07.32-10.09-.31-15-1.5-.33-2.5.91-1.23,2.25-1.14,3.55.24,6.85,1.39,9-2.61.66.82,2.7,1.79,3.38,3,.34-6.61-1.52-13.81-3.38-20.25-1.22-4.21-3.51-8.15-4.5-12-.38-1.48.1-1.72,1.5-1.5Z"/>
  <path class="st8" d="M858.75,672c.86,4.79,4.33,9.1,6.36,13.51,1.35,2.92,2.3,5.97,3.39,8.99-3.23.65-4.98-3.14-7.31-4.46-.5-.29-1.4.1-1.69-.04-2.38-1.18-4.4-3.2-7.5-3v-17.25c2.16.96,4.58,1.5,6.75,2.25Z"/>
  <path class="st6" d="M859.5,690c4.14,3.95,8.51,7.92,10.51,13.49,1.23.22.81-2.3.74-2.99l.75-1.5h.75c.36,1.43.55,3.03.75,4.5-1.33.04-1.79,2.59-1.5,3.75-.06-.06-1.08-.51-1.5-.75-.68-.39-1.13-1.01-2.25-1.5-4.84-2.11-11.01-2.98-15.75-6v-12c3.1-.2,5.12,1.82,7.5,3Z"/>
  <path class="st11" d="M878.25,696c.09.86,1.48,2.84.75,4.51h2.25c-.57.62-.91,2.02-1.86,3-1.17,1.21-4.66,3.57-4.84,3.82-.73,1.03,6.16,21.03,5.19,24.67l3,23.25c-.04.24.02.5,0,.75-.17,1.71.12,3.53,0,5.25l1.5,18.75h-2.25l-1.46-22.77c-.11-.3-2.46-1.05-3.04-1.23l.75-3c.6.72,1.48,2.06,2.24,2.25-.44-7.31-1.21-14.74-2.36-22-1.07-6.71-2.79-18.09-5-24.19-.42-1.16-.9-1.14-1.63-1.8-.29-1.16.17-3.71,1.5-3.75.23,0,1.03.9,1.78.68,2.27-.67,2.16-6.48,3.47-8.18Z"/>
  <path class="st4" d="M1065.75,651c.88.45-.06,3.75,3,1.5v5.25l-15,43.5c-.03-.13-1.13-1.48-1.5-2.25,3.55-14.52,7.98-28.92,14.15-42.56-.16-1.42-1.98-4.18-2.9-5.44.62.13,1.87-.2,2.25,0Z"/>
  <path class="st14" d="M859.5,672c-.21-.08-.52.08-.75,0-2.17-.75-4.59-1.29-6.75-2.25v-17.25c6.83,2.92,9.08,12.94,7.5,19.5Z"/>
  <path class="st6" d="M1038.75,762c1.91,1.04,4.12,5.41,6.38,6.75.27-1.68.95-3.57,1.12-5.25h2.25c0,2.56-.05,4.88,0,7.5.02,1.25,0,2.5,0,3.75,0,1.75,0,3.5,0,5.25h-3c-.18-2.47.51-5.05-.42-7.47-1.47-3.85-10.04-7.39-10.83-12.03,1.43.7,3.51.96,4.5,1.5Z"/>
  <path class="st9" d="M1068.75,652.5c-3.06,2.25-2.12-1.05-3-1.5-.07-2.74.1-5.51,0-8.25v-.75c-.03-.49.09-1.07,0-1.5l.75-1.5c.36-.27.69-4.65,2.25-5.25v18.75Z"/>
  <path class="st9" d="M1051.5,780h-3c0-1.75,0-3.5,0-5.25,5.71-.12.76-7.1,6.75-7.5.05,3.8-3.24,8.84-3.75,12.75Z"/>
  <path class="st11" d="M1068.75,741v3c-2.18,2.09-3.35,6.1-4.5,9-.3.76-.73,2.81-.84,2.91-.39.35-2.12.05-2.91.09,1.75-4.24,3.23-8.82,5.6-12.78.7-1.17.89-2.3,2.65-2.22Z"/>
  <path class="st3" d="M1068.75,751.5l-4.5,1.5c1.15-2.9,2.32-6.91,4.5-9v7.5Z"/>
  <path class="st18" d="M871.49,351.75c.21.23.93,4.83,1.91,5.98,1.33,1.55,5.22,1.33,6.35,3.02-2.97-.54-6.87,1.66-7.91,4.47-.64,1.72.6,4.35-1.83,3.79.26-2.97-1.13-5.07-3.48-6.66-.77-.52-4.6-.76-3.27-2.33.14-.17,3.1-.54,4.17-1.47,1.41-1.23,1.86-4.05,2.59-5.66.24-.53.14-2.61,1.49-1.13Z"/>
  <path class="st18" d="M918.75,446.24c-.43,4.7,1.69,5.9,5.61,6.79s-1.82,2.17-2.99,2.97c-.89.61-1.88,1.83-2.52,2.73-.38.54-.99,4.88-2.34,3.27-.25-.29-.34-5.25-.89-5.87-.79-.89-6.32-.03-5.86-3.13,4.18.67,7.41-2.59,6.75-6.76h2.25Z"/>
  <path class="st5" d="M975.48,314.36c2.62-.48,6.23,4.47,1.99,5.75-5.47,1.65-4.7-5.26-1.99-5.75Z"/>
  <path class="st5" d="M1016.77,424.58c2.37-.59,4.18,2.01,2.15,4.46-3.5,4.23-6.1-3.47-2.15-4.46Z"/>
  <path class="st5" d="M920.72,345.8c3.34-.97,5.41,6.15-.08,5.23-3.27-.55-1.46-4.78.08-5.23Z"/>
  <path class="st5" d="M995.95,475.55c1.67,1.2.11,6.59-3.58,4.34-2.45-1.5,1.3-5.98,3.58-4.34Z"/>
  <path class="st19" d="M1038.75,762c-.99-.54-3.07-.8-4.5-1.5-9.42-4.61-23.82-28.79-26.62-39.01-1.78-6.49-4.89-27.37,5.26-27.79,7.91-.33,15.68,15.47,17.81,21.97,4.67,14.23,6.44,31.46,8.05,46.33Z"/>
  <path class="st17" d="M970.5,714c3.32-6.41,18.22-18.53,25.72-16.34,5.4,1.58,2.99,17.42,1.82,21.75-1.58,5.83-6.98,14.49-11.84,18.16-3.66,2.76-10.51,6.79-14.94,6.44-3.78-.3-1.35-1.35-4.13-3.74-3.61,3.7-.86,2.84.38,5.99-1.02.36-1.98,1.1-3,1.5.24-1.83-1.37-1.03-1.57-2.59-.27-2.13.79-3.45.82-4.16,2.77-3.57,1.56-9.58,2.3-13.83.47-2.68,3.11-10.58,4.45-13.17ZM972.75,731.25c-1.6-.35-2.5,1.93-3.3,3.06-.49.69-3.09,4.76-2.7,5.18l2.37-1.74,3.62-6.5Z"/>
  <path class="st13" d="M947.25,657c1.87,4.1,2.36,9.09,3.75,12.75-3.18,2.3-.57,7.78,3,7.5.19.52.55.99.75,1.5-1.4-.22-1.88.02-1.5,1.5-17.7-1.2-32.64-9.93-38.21-27.42-4.6-14.46-.95-21.45,14.11-14.11,8.2,4,14.39,10.16,18.09,18.28ZM939.29,661.97c-.68-.72-1.34-2.76-2.53-2.35,1.92,2.42,2.74,4.78,5.62,6.37.04-1.88-2.09-2.96-3.09-4.02ZM944.56,667.92c-.57-.62.05-1.43-1.05-1.16.32,1.66.36,3.54,2.24,2.99.63-1.78-.62-1.2-1.19-1.83Z"/>
  <path class="st19" d="M1050.75,697.5l-1.5,1.5c-1.18-1.14-5.38-3.17-6.92-4.53-7.95-7.04-16.06-19.47-17.07-30.35-1.47-15.91,10.28-14.25,16.63-3.14s4.08,26.15,8.86,36.52Z"/>
  <path class="st12" d="M957,660c.4-5.61,4.04-15.27,10.87-10.5,6.87,4.8,10.8,16.81,9.16,24.91-.84,4.18-8.99,10.41-11.04,14.83-.54.51-1.88.48-2.25.75.35-2.01-.48-1.53-2.25-1.5,1.92-11.13-5.25-17.91-4.5-28.5Z"/>
  <path class="st12" d="M946.5,713.25c-1.29-.31-2.59-.58-3.9-.82-5.7-3.02-11.82-8.14-14.39-14.27-3.44-8.21,1.72-9.38,8.9-8.89,6.24.42,8.9,5.39,13.89,6.73-.44,1.81.37,2.48,1.1,3.78,1.37,2.47,4.15,7.85,5.65,9.72-2.15,4-5.44,2.85-9,2.61-1.35-.09-2.59-1.36-2.25,1.14Z"/>
  <path class="st1" d="M878.25,696c-.65-6.49,1.49-18.24,5.1-23.77,7.24-11.08,13.49-3.96,12.08,6.84-.54,4.15-5.14,12.92-8.18,15.81-1.28,1.22-3.57,1.77-3.69,1.94-.09.13.77,1.32.37,2.18-.61,1.29-2.47,1.29-2.67,1.51h-2.25c.73-1.66-.66-3.64-.75-4.5Z"/>
  <path class="st6" d="M901.5,722.25c10.15,3.09.23,18.8-4.5,23.62-2.83,2.89-11.42,6.86-12,10.13-.69.11-1.52-.07-2.25,0,.02-.25-.04-.51,0-.75.32-2.07,2-3.18,2.06-3.38,1.27-4.6,1.94-10.27,3.23-14.82.18-.64,1.4-.47,1.43-1.02.15-2.57,1.94-5.86,4.13-8.55,1.82-2.24,4.11-3.59,6.39-5.23.48.07,1.12-.12,1.5,0Z"/>
  <path class="st16" d="M947.25,657c.73-1.72,3.86.89,4.16,1.51.75,1.52-2.55,8.39,4.08,7.5.71-.66-1.55-6.6,1.5-6-.75,10.59,6.42,17.37,4.5,28.5-1.34,7.8-6.06-7.97-6.75-9.75-.2-.51-.56-.98-.75-1.5-.95-2.56-2.05-5-3-7.5-1.39-3.66-1.88-8.65-3.75-12.75Z"/>
  <path class="st3" d="M901.5,722.25c-1.1-5.93,6.62,2.31,6.75,2.79.2.74-.52,10.9-.85,11.36-.26.36-1.96.29-2.95,1.38-1.33,1.46-5.53,11.09-6.69,11.85-1.02.66-2.76.07-4.19,1.06-1.19.82-2.35,4.42-3.28,4.93-.23.13-3.82.14-5.29.37-.35,1.99,1.1,5.22-2.25,5.25.12-1.72-.17-3.54,0-5.25.73-.07,1.56.11,2.25,0,.57-3.27,9.16-7.24,12-10.13,4.73-4.82,14.66-20.54,4.5-23.62Z"/>
  <path class="st3" d="M900,722.25c-2.28,1.64-4.57,2.99-6.39,5.23-2.19,2.69-3.98,5.98-4.13,8.55-.03.55-1.25.39-1.43,1.02-1.3,4.55-1.96,10.22-3.23,14.82-.05.2-1.74,1.31-2.06,3.38l-3-23.25c6.38-.88,1.95,5.71,3.8,7.45.14.13,2.84.15,2.94.05.71-.69-1.16-5.48-.72-5.96.16-.17,3.68-.66,4.29-1.72.66-1.15.06-4.07,1.16-5.6.37-.52,1.52-.73,2.06-1.3,1.71-1.81,1.56-3.34,4.97-3.4,1.16-.02,1.58.7,1.75.72Z"/>
  <path class="st6" d="M1050.75,716.25c-.15,2.46.22,5.07,0,7.5-1.12,12.28-2.09,22.47-2.25,35.25h-2.25c.01-1.67-.83-3.95-.79-6.4.15-8.37,1.56-25.56,3.08-33.69.58-3.09,1.71-2.53,2.21-2.66Z"/>
  <path class="st16" d="M963,709.5c2.71.55,3.37,5.11,7.5,4.5-1.34,2.59-3.98,10.48-4.45,13.17-.74,4.25.47,10.26-2.3,13.83.48-10.22.14-21.33-.75-31.5Z"/>
  <path class="st16" d="M957.75,692.25c1.86,6.44,3.72,13.64,3.38,20.25-.68-1.2-2.72-2.18-3.38-3-1.5-1.88-4.28-7.25-5.65-9.72-.72-1.3-1.54-1.97-1.1-3.78.72.19,4.23.91,4.47.74.91-.63-.16-5.48,2.28-4.49Z"/>
  <path class="st11" d="M872.25,699h-1.5c-.23-.98-1.85-3.38-2.25-4.5-1.09-3.02-2.04-6.06-3.39-8.99-2.03-4.41-5.5-8.73-6.36-13.51.23.08.54-.08.75,0,3.1,1.25,11.68,22.76,12.75,27Z"/>
  <path class="st16" d="M963,708c-.88-5.05-4.07-14.52.75-18,.37-.27,1.71-.24,2.25-.75-.15.32-2.22,6.09-2.25,6.44-.32,3.15,2.86,9.73-.75,12.31Z"/>
  <path class="st11" d="M1052.25,699c.37.77,1.47,2.12,1.5,2.25.18.76.07,2.81,0,3.75-1.23-.24-1.67.58-2.25,1.5-.21-1.44.35-3.41.01-4.71-.17-.66-1.27-.78-1.78-1.35-.44-.49-.36-1.33-.48-1.44l1.5-1.5c.22.47,1.27,1.02,1.5,1.5Z"/>
  <path class="st10" d="M967.5,746.25c-1.24-3.14-3.99-2.28-.38-5.99,2.78,2.38.34,3.44,4.13,3.74.57,2.11-2.06,1.66-3.75,2.25Z"/>
  <path class="st11" d="M1053,708c-.33,2.15-.79,4.71-1.5,6.75-.28-.22-.5-.5-.75-.75l-.75-.75c-.34-2,.16-3.43.75-5.25h2.25Z"/>
  <path class="st5" d="M953.25,528.74c.3-.72.61-3.62.76-3.75,2.17-1.87,5.71,4.65-.76,3.75Z"/>
  <path class="st11" d="M1048.5,759c-.02,1.5,0,3,0,4.5h-2.25c.05-.49,0-1.01,0-1.5l.74-.38-.74-.38c0-.75,0-1.5,0-2.25h2.25Z"/>
  <path class="st4" d="M1053.75,705c-.07.95-.6,2.02-.75,3h-2.25c.23-.71.38-.92.75-1.5.58-.92,1.02-1.74,2.25-1.5Z"/>
  <path class="st6" d="M1050.75,714c-.22-.22-.7-.48-.75-.75l.75.75Z"/>
  <path class="st6" d="M1046.25,762c0-.25,0-.5,0-.75l.74.38-.74.38Z"/>
  <path class="st6" d="M878.25,753l-.75,3c-6.64-1.97-12.94-2.33-18.69-7.18-7.92-6.68-6.82-16.41,5.22-11.22,6.83,2.94,9.81,10.16,14.22,15.41Z"/>
  <path class="st11" d="M870,706.5c-1.66.12-2.63.4-2.25-1.5,1.12.49,1.57,1.11,2.25,1.5Z"/>
  <path class="st9" d="M1050.75,723.75c4.9.97.16,9.29.06,12.44-.31,10.26-.44,21.15-.81,32.21-.05,1.44.76,3.01-1.5,2.59-.05-2.62,0-4.94,0-7.5,0-1.5-.02-3,0-4.5.16-12.78,1.13-22.97,2.25-35.25Z"/>
  <path class="st9" d="M1060.5,756c-1.42,3.44-2.23,8.03-5.25,10.5,0-.1-.69-.84-.78-1.84-.45-4.95,1.75-3.02,2.68-4.89,1.66-3.36-1.95-3.49,3.36-3.77Z"/>
  <path class="st4" d="M1066.5,639l-.75,1.5c-.02-.08-1.23-.99-.75-1.49.16-.17,1.26.17,1.5,0Z"/>
  <path class="st4" d="M1065.75,642.75c-.01-.32,0-.63,0-.75v.75Z"/>
  <path class="st3" d="M859.5,690c.29.14,1.18-.25,1.69.04,2.33,1.32,4.08,5.11,7.31,4.46.4,1.12,2.02,3.52,2.25,4.5.1.42-.05,1.01,0,1.5.07.7.49,3.21-.74,2.99-2-5.58-6.37-9.54-10.51-13.49Z"/>
  <path class="st15" d="M870.75,700.5c-.05-.49.1-1.08,0-1.5h.75l-.75,1.5Z"/>
  <path class="st7" d="M972.75,731.25l-3.62,6.5-2.37,1.74c-.4-.41,2.2-4.48,2.7-5.18.8-1.13,1.7-3.41,3.3-3.06Z"/>
  <path class="st10" d="M954,677.25c-3.57.28-6.18-5.2-3-7.5.95,2.5,2.05,4.94,3,7.5Z"/>
  <path class="st7" d="M939.29,661.97c1,1.06,3.13,2.14,3.09,4.02-2.88-1.59-3.7-3.94-5.62-6.37,1.19-.41,1.85,1.63,2.53,2.35Z"/>
  <path class="st7" d="M944.56,667.92c.57.63,1.82.05,1.19,1.83-1.88.55-1.92-1.33-2.24-2.99,1.1-.26.48.54,1.05,1.16Z"/>
</svg>